<?xml version="1.0" encoding="UTF-8"?>
<svg xmlns="http://www.w3.org/2000/svg" xmlns:xlink="http://www.w3.org/1999/xlink" width="150px" height="105px" viewBox="0 0 149 105" version="1.1">
<g id="surface1">
<path style=" stroke:none;fill-rule:nonzero;fill:rgb(0%,0%,0%);fill-opacity:1;" d="M 83.046875 38.578125 L 65.582031 43.222656 L 65.582031 18.574219 L 83.046875 22.503906 Z M 85.542969 18.574219 C 81.265625 13.574219 73.421875 13.574219 73.421875 13.574219 L 59.878906 13.574219 L 59.878906 48.578125 L 73.421875 48.578125 C 73.421875 48.578125 80.582031 48.605469 85.542969 43.222656 C 89.820312 38.578125 89.820312 32.519531 89.820312 31.078125 C 89.820312 29.632812 89.820312 23.574219 85.542969 18.574219 "/>
<path style=" stroke:none;fill-rule:nonzero;fill:rgb(0%,0%,0%);fill-opacity:1;" d="M 114.089844 83.207031 L 114.089844 82.050781 L 114.371094 82.011719 C 114.808594 81.945312 115.234375 81.742188 115.636719 81.40625 C 116.066406 81.050781 116.515625 80.527344 116.980469 79.839844 L 120.648438 74.359375 L 115.847656 66.980469 C 115.644531 66.660156 115.472656 66.421875 115.328125 66.269531 C 115.207031 66.136719 115.078125 66.042969 114.953125 65.988281 C 114.816406 65.929688 114.636719 65.890625 114.421875 65.878906 L 114.113281 65.855469 L 114.113281 64.667969 L 114.464844 64.6875 C 115.59375 64.753906 116.3125 64.785156 116.601562 64.785156 C 117.714844 64.785156 118.902344 64.753906 120.128906 64.6875 L 120.476562 64.667969 L 120.476562 65.878906 L 120.148438 65.878906 C 118.9375 65.878906 118.796875 66.101562 118.796875 66.101562 C 118.796875 66.105469 118.800781 66.207031 118.96875 66.476562 L 122.605469 72.050781 L 124.792969 68.769531 C 125.648438 67.484375 125.828125 66.84375 125.828125 66.53125 C 125.828125 66.308594 125.738281 66.171875 125.53125 66.074219 C 125.253906 65.941406 124.804688 65.867188 124.199219 65.851562 L 123.878906 65.84375 L 123.878906 64.667969 L 124.222656 64.6875 C 125.171875 64.734375 126.140625 64.761719 127.101562 64.761719 C 128.003906 64.761719 128.710938 64.738281 129.203125 64.6875 L 129.566406 64.652344 L 129.566406 65.808594 L 129.285156 65.851562 C 128.839844 65.914062 128.410156 66.121094 128.007812 66.457031 C 127.578125 66.816406 127.132812 67.34375 126.675781 68.019531 L 123.28125 73.097656 L 128.359375 80.878906 C 128.5625 81.199219 128.738281 81.4375 128.878906 81.589844 C 129 81.722656 129.128906 81.820312 129.257812 81.875 C 129.394531 81.933594 129.570312 81.96875 129.785156 81.984375 L 130.09375 82.003906 L 130.09375 83.191406 L 129.746094 83.171875 C 128.609375 83.109375 127.890625 83.074219 127.605469 83.074219 C 127.050781 83.074219 125.863281 83.109375 124.074219 83.171875 L 123.730469 83.1875 L 123.730469 81.984375 L 124.058594 81.984375 C 124.6875 81.984375 125.132812 81.957031 125.378906 81.902344 C 125.445312 81.890625 125.488281 81.875 125.511719 81.863281 C 125.5 81.820312 125.46875 81.75 125.394531 81.640625 L 121.371094 75.464844 L 118.9375 79.105469 C 118.195312 80.214844 118.039062 80.820312 118.039062 81.132812 C 118.039062 81.429688 118.15625 81.617188 118.417969 81.742188 C 118.753906 81.902344 119.269531 81.992188 119.945312 82.007812 L 120.269531 82.015625 L 120.269531 83.191406 L 119.921875 83.171875 C 118.984375 83.125 117.851562 83.101562 116.554688 83.101562 C 115.644531 83.101562 114.9375 83.125 114.453125 83.171875 Z M 114.089844 83.207031 "/>
<path style=" stroke:none;fill-rule:nonzero;fill:rgb(0%,0%,0%);fill-opacity:1;" d="M 24.027344 65.804688 C 23.4375 65.804688 23.132812 65.886719 22.984375 65.953125 C 22.808594 66.035156 22.691406 66.171875 22.625 66.386719 C 22.535156 66.65625 22.492188 67.074219 22.492188 67.636719 L 22.492188 80.222656 C 22.492188 80.792969 22.535156 81.214844 22.625 81.480469 C 22.691406 81.691406 22.808594 81.828125 22.988281 81.90625 C 23.140625 81.976562 23.449219 82.054688 24.050781 82.054688 C 25.761719 82.054688 27.113281 81.746094 28.066406 81.136719 C 29.011719 80.535156 29.6875 79.640625 30.074219 78.476562 C 30.472656 77.277344 30.675781 75.714844 30.675781 73.832031 C 30.675781 71.945312 30.457031 70.394531 30.019531 69.21875 C 29.601562 68.082031 28.90625 67.222656 27.960938 66.660156 C 27 66.09375 25.675781 65.804688 24.027344 65.804688 M 17.464844 83.199219 L 17.464844 82.019531 L 17.78125 82.007812 C 18.488281 81.980469 18.832031 81.898438 18.996094 81.832031 C 19.179688 81.761719 19.296875 81.636719 19.367188 81.441406 C 19.429688 81.269531 19.5 80.910156 19.5 80.175781 L 19.5 67.6875 C 19.5 66.953125 19.429688 66.59375 19.367188 66.421875 C 19.296875 66.222656 19.179688 66.097656 18.996094 66.027344 C 18.832031 65.964844 18.484375 65.882812 17.78125 65.851562 L 17.464844 65.839844 L 17.464844 64.664062 L 17.816406 64.6875 C 18.703125 64.746094 19.519531 64.773438 20.246094 64.773438 L 20.855469 64.761719 C 23.183594 64.710938 24.425781 64.6875 24.652344 64.6875 C 27.6875 64.6875 30.007812 65.46875 31.539062 67.007812 C 33.074219 68.550781 33.851562 70.8125 33.851562 73.734375 C 33.851562 75.605469 33.476562 77.273438 32.738281 78.6875 C 31.996094 80.113281 30.902344 81.230469 29.484375 82.007812 C 28.074219 82.78125 26.375 83.171875 24.429688 83.171875 C 24.195312 83.171875 23.65625 83.160156 22.785156 83.136719 C 21.929688 83.113281 21.296875 83.101562 20.910156 83.101562 C 19.550781 83.101562 18.511719 83.125 17.816406 83.171875 Z M 17.464844 83.199219 "/>
<path style=" stroke:none;fill-rule:nonzero;fill:rgb(0%,0%,0%);fill-opacity:1;" d="M 42.867188 73.550781 L 44.226562 73.550781 C 45.292969 73.550781 46.128906 73.382812 46.714844 73.050781 C 47.292969 72.726562 47.675781 72.304688 47.894531 71.765625 C 48.125 71.203125 48.238281 70.507812 48.238281 69.703125 C 48.238281 68.417969 47.9375 67.445312 47.347656 66.804688 C 46.761719 66.171875 45.769531 65.851562 44.398438 65.851562 C 43.808594 65.851562 43.507812 65.933594 43.359375 66.003906 C 43.183594 66.082031 43.066406 66.21875 42.996094 66.4375 C 42.910156 66.703125 42.867188 67.125 42.867188 67.6875 Z M 51.011719 83.53125 C 50.242188 83.53125 49.597656 83.296875 49.097656 82.84375 C 48.597656 82.390625 48.238281 81.636719 47.988281 80.542969 L 47.4375 78.035156 C 47.246094 77.175781 47.0625 76.511719 46.894531 76.054688 C 46.738281 75.644531 46.507812 75.3125 46.199219 75.070312 C 45.90625 74.835938 45.476562 74.714844 44.925781 74.714844 L 42.867188 74.714844 L 42.867188 80.175781 C 42.867188 80.910156 42.9375 81.269531 43 81.441406 C 43.070312 81.636719 43.1875 81.761719 43.371094 81.832031 C 43.535156 81.898438 43.878906 81.980469 44.585938 82.007812 L 44.902344 82.019531 L 44.902344 83.195312 L 44.550781 83.171875 C 43.792969 83.125 42.726562 83.101562 41.382812 83.101562 C 39.957031 83.101562 38.882812 83.125 38.191406 83.171875 L 37.839844 83.199219 L 37.839844 82.019531 L 38.15625 82.007812 C 38.859375 81.980469 39.203125 81.898438 39.367188 81.832031 C 39.550781 81.761719 39.671875 81.636719 39.738281 81.441406 C 39.800781 81.269531 39.875 80.910156 39.875 80.175781 L 39.875 67.6875 C 39.875 66.949219 39.800781 66.59375 39.738281 66.421875 C 39.671875 66.222656 39.550781 66.097656 39.367188 66.027344 C 39.203125 65.964844 38.859375 65.882812 38.15625 65.851562 L 37.839844 65.839844 L 37.839844 64.664062 L 38.191406 64.6875 C 38.882812 64.734375 39.90625 64.761719 41.234375 64.761719 C 41.890625 64.761719 42.617188 64.753906 43.394531 64.734375 C 44.195312 64.71875 44.730469 64.710938 45.023438 64.710938 C 46.371094 64.710938 47.53125 64.914062 48.476562 65.308594 C 49.4375 65.710938 50.175781 66.277344 50.667969 66.984375 C 51.164062 67.699219 51.414062 68.519531 51.414062 69.417969 C 51.414062 70.121094 51.25 70.835938 50.925781 71.542969 C 50.59375 72.261719 50.035156 72.90625 49.261719 73.46875 C 48.816406 73.789062 48.292969 74.050781 47.691406 74.25 C 47.988281 74.34375 48.246094 74.457031 48.472656 74.582031 C 48.972656 74.859375 49.371094 75.242188 49.667969 75.722656 C 49.949219 76.1875 50.179688 76.804688 50.351562 77.558594 L 50.976562 80.121094 C 51.082031 80.628906 51.183594 81.019531 51.289062 81.292969 C 51.378906 81.535156 51.484375 81.707031 51.597656 81.8125 C 51.6875 81.894531 51.796875 81.933594 51.941406 81.933594 C 52.144531 81.933594 52.304688 81.886719 52.425781 81.789062 C 52.582031 81.664062 52.796875 81.429688 53.058594 81.101562 L 53.257812 80.847656 L 54.152344 81.515625 L 53.96875 81.777344 C 53.554688 82.375 53.132812 82.820312 52.714844 83.09375 C 52.277344 83.382812 51.703125 83.53125 51.011719 83.53125 "/>
<path style=" stroke:none;fill-rule:nonzero;fill:rgb(0%,0%,0%);fill-opacity:1;" d="M 64.910156 83.53125 C 62.992188 83.53125 61.496094 83.042969 60.464844 82.078125 C 59.9375 81.585938 59.53125 81.054688 59.246094 80.503906 C 58.964844 79.953125 58.769531 79.285156 58.65625 78.511719 C 58.550781 77.765625 58.492188 76.78125 58.492188 75.589844 L 58.492188 67.6875 C 58.492188 66.949219 58.421875 66.59375 58.359375 66.421875 C 58.289062 66.222656 58.171875 66.097656 57.988281 66.027344 C 57.824219 65.964844 57.480469 65.882812 56.773438 65.851562 L 56.457031 65.839844 L 56.457031 64.664062 L 56.8125 64.6875 C 57.511719 64.734375 58.585938 64.761719 60.003906 64.761719 C 61.339844 64.761719 62.410156 64.734375 63.183594 64.6875 L 63.535156 64.664062 L 63.535156 65.839844 L 63.21875 65.851562 C 62.511719 65.882812 62.167969 65.964844 62.003906 66.027344 C 61.820312 66.097656 61.703125 66.222656 61.632812 66.421875 C 61.570312 66.59375 61.496094 66.949219 61.496094 67.6875 L 61.496094 76.019531 C 61.496094 77.335938 61.585938 78.4375 61.761719 79.296875 C 61.925781 80.109375 62.273438 80.769531 62.796875 81.261719 C 63.308594 81.738281 64.09375 81.984375 65.128906 81.984375 C 66.796875 81.984375 67.929688 81.472656 68.589844 80.429688 C 69.273438 79.347656 69.617188 77.789062 69.617188 75.800781 L 69.617188 67.945312 C 69.617188 67.371094 69.554688 66.929688 69.429688 66.636719 C 69.320312 66.375 69.144531 66.195312 68.898438 66.082031 C 68.617188 65.953125 68.199219 65.875 67.65625 65.851562 L 67.335938 65.839844 L 67.335938 64.660156 L 67.695312 64.6875 C 68.289062 64.734375 69.140625 64.761719 70.230469 64.761719 C 71.222656 64.761719 71.996094 64.734375 72.53125 64.6875 L 72.894531 64.65625 L 72.894531 65.839844 L 72.578125 65.851562 C 71.914062 65.882812 71.582031 65.988281 71.417969 66.070312 C 71.214844 66.171875 71.082031 66.339844 71.007812 66.578125 C 70.914062 66.875 70.867188 67.332031 70.867188 67.945312 L 70.867188 75.515625 C 70.867188 76.734375 70.785156 77.800781 70.625 78.679688 C 70.457031 79.578125 70.179688 80.367188 69.792969 81.019531 C 69.335938 81.792969 68.667969 82.410156 67.800781 82.859375 C 66.945312 83.304688 65.972656 83.53125 64.910156 83.53125 "/>
<path style=" stroke:none;fill-rule:nonzero;fill:rgb(0%,0%,0%);fill-opacity:1;" d="M 80.214844 83.195312 L 80.214844 82.019531 L 80.53125 82.007812 C 81.238281 81.984375 81.753906 81.917969 82.0625 81.804688 C 82.320312 81.714844 82.484375 81.558594 82.582031 81.324219 C 82.660156 81.128906 82.753906 80.726562 82.753906 79.917969 L 82.753906 65.925781 L 81.722656 65.925781 C 80.746094 65.925781 80.023438 66.058594 79.574219 66.320312 C 79.140625 66.570312 78.84375 66.960938 78.667969 67.511719 C 78.476562 68.113281 78.3125 69.0625 78.1875 70.335938 L 78.15625 70.636719 L 76.917969 70.636719 L 76.953125 70.273438 C 77 69.753906 77.023438 69.070312 77.023438 68.238281 C 77.023438 67.273438 76.960938 66.199219 76.84375 65.054688 L 76.800781 64.671875 L 77.183594 64.6875 C 78.5625 64.734375 80.945312 64.761719 84.261719 64.761719 C 87.550781 64.761719 89.921875 64.734375 91.300781 64.6875 L 91.679688 64.675781 L 91.640625 65.050781 C 91.53125 66.230469 91.472656 67.300781 91.472656 68.238281 C 91.472656 69.070312 91.496094 69.753906 91.542969 70.273438 L 91.578125 70.636719 L 90.339844 70.636719 L 90.308594 70.335938 C 90.183594 69.0625 90.019531 68.113281 89.828125 67.511719 C 89.652344 66.960938 89.355469 66.570312 88.921875 66.320312 C 88.472656 66.058594 87.75 65.925781 86.773438 65.925781 L 85.742188 65.925781 L 85.742188 79.917969 C 85.742188 80.566406 85.800781 81.039062 85.914062 81.324219 C 86.011719 81.558594 86.175781 81.714844 86.433594 81.804688 C 86.742188 81.917969 87.257812 81.984375 87.964844 82.007812 L 88.28125 82.019531 L 88.28125 83.191406 L 87.933594 83.171875 C 87.0625 83.125 85.824219 83.101562 84.261719 83.101562 C 82.597656 83.101562 81.355469 83.125 80.5625 83.171875 Z M 80.214844 83.195312 "/>
<path style=" stroke:none;fill-rule:nonzero;fill:rgb(0%,0%,0%);fill-opacity:1;" d="M 109.894531 83.191406 L 109.515625 83.171875 C 108.390625 83.125 106.457031 83.101562 103.777344 83.101562 C 100.582031 83.101562 98.132812 83.125 96.5 83.171875 L 96.160156 83.183594 L 96.160156 82.019531 L 96.480469 82.007812 C 97.183594 81.980469 97.527344 81.898438 97.691406 81.832031 C 97.875 81.761719 97.992188 81.636719 98.0625 81.441406 C 98.125 81.269531 98.199219 80.910156 98.199219 80.175781 L 98.199219 67.6875 C 98.199219 66.949219 98.125 66.59375 98.0625 66.421875 C 97.992188 66.222656 97.875 66.097656 97.691406 66.027344 C 97.527344 65.964844 97.183594 65.882812 96.480469 65.851562 L 96.160156 65.839844 L 96.160156 64.675781 L 96.5 64.6875 C 98.132812 64.734375 100.582031 64.761719 103.777344 64.761719 C 106.222656 64.761719 107.984375 64.734375 109.011719 64.6875 L 109.394531 64.667969 L 109.355469 65.050781 C 109.242188 66.132812 109.1875 67.121094 109.1875 67.992188 C 109.1875 68.632812 109.210938 69.144531 109.257812 69.511719 L 109.304688 69.886719 L 108.058594 69.886719 L 108.023438 69.589844 C 107.90625 68.53125 107.757812 67.734375 107.582031 67.230469 C 107.421875 66.773438 107.167969 66.453125 106.800781 66.25 C 106.414062 66.035156 105.800781 65.925781 104.980469 65.925781 L 102.894531 65.925781 C 102.191406 65.925781 101.851562 65.996094 101.6875 66.054688 C 101.507812 66.121094 101.390625 66.238281 101.324219 66.429688 C 101.261719 66.597656 101.1875 66.953125 101.1875 67.6875 L 101.1875 73.292969 L 102.527344 73.292969 C 103.246094 73.292969 103.699219 73.101562 103.917969 72.707031 C 104.175781 72.242188 104.335938 71.761719 104.394531 71.28125 C 104.460938 70.761719 104.503906 70.414062 104.53125 70.253906 L 104.574219 69.972656 L 105.789062 69.972656 L 105.761719 70.328125 C 105.707031 71.140625 105.679688 71.933594 105.679688 72.675781 L 105.691406 73.878906 C 105.691406 74.722656 105.738281 75.917969 105.835938 77.4375 L 105.859375 77.789062 L 104.644531 77.789062 L 104.605469 77.503906 C 104.585938 77.390625 104.542969 77 104.460938 76.277344 C 104.394531 75.664062 104.199219 75.203125 103.882812 74.902344 C 103.566406 74.605469 103.125 74.457031 102.527344 74.457031 L 101.1875 74.457031 L 101.1875 80.175781 C 101.1875 80.910156 101.261719 81.265625 101.324219 81.433594 C 101.390625 81.621094 101.507812 81.742188 101.6875 81.804688 C 101.851562 81.863281 102.191406 81.933594 102.894531 81.933594 L 104.734375 81.933594 C 105.722656 81.933594 106.476562 81.804688 106.96875 81.550781 C 107.445312 81.308594 107.777344 80.929688 107.992188 80.386719 C 108.21875 79.800781 108.398438 78.917969 108.527344 77.765625 L 108.558594 77.472656 L 109.800781 77.472656 L 109.761719 77.839844 C 109.714844 78.273438 109.6875 78.875 109.6875 79.621094 C 109.6875 80.558594 109.746094 81.632812 109.859375 82.8125 Z M 109.894531 83.191406 "/>
<path style=" stroke:none;fill-rule:nonzero;fill:rgb(0%,0%,0%);fill-opacity:1;" d="M 27.707031 96.160156 L 27.707031 96.800781 L 23.839844 96.800781 L 23.839844 91.09375 L 27.632812 91.09375 L 27.632812 91.734375 L 24.5625 91.734375 L 24.5625 93.585938 L 27.234375 93.585938 L 27.234375 94.1875 L 24.5625 94.1875 L 24.5625 96.160156 Z M 27.707031 96.160156 "/>
<path style=" stroke:none;fill-rule:nonzero;fill:rgb(0%,0%,0%);fill-opacity:1;" d="M 30.019531 92.445312 L 30.019531 96.800781 L 29.296875 96.800781 L 29.296875 91.09375 L 29.859375 91.09375 L 33.390625 95.539062 L 33.390625 91.101562 L 34.113281 91.101562 L 34.113281 96.800781 L 33.503906 96.800781 Z M 30.019531 92.445312 "/>
<path style=" stroke:none;fill-rule:nonzero;fill:rgb(0%,0%,0%);fill-opacity:1;" d="M 40.234375 96.03125 C 39.730469 96.570312 39.152344 96.84375 38.5 96.84375 C 38.121094 96.84375 37.769531 96.757812 37.445312 96.59375 C 37.121094 96.425781 36.84375 96.207031 36.609375 95.9375 C 36.371094 95.667969 36.1875 95.359375 36.050781 95.007812 C 35.914062 94.660156 35.84375 94.300781 35.84375 93.929688 C 35.84375 93.546875 35.914062 93.179688 36.046875 92.832031 C 36.179688 92.488281 36.363281 92.183594 36.597656 91.917969 C 36.835938 91.652344 37.117188 91.441406 37.441406 91.285156 C 37.769531 91.128906 38.121094 91.050781 38.5 91.050781 C 39.050781 91.050781 39.503906 91.167969 39.859375 91.398438 C 40.21875 91.628906 40.488281 91.929688 40.675781 92.300781 L 40.121094 92.683594 C 39.949219 92.351562 39.722656 92.105469 39.441406 91.945312 C 39.15625 91.785156 38.839844 91.703125 38.484375 91.703125 C 38.195312 91.703125 37.933594 91.765625 37.699219 91.894531 C 37.464844 92.019531 37.261719 92.183594 37.097656 92.390625 C 36.929688 92.597656 36.804688 92.835938 36.710938 93.105469 C 36.621094 93.378906 36.574219 93.660156 36.574219 93.949219 C 36.574219 94.253906 36.625 94.542969 36.726562 94.8125 C 36.828125 95.082031 36.96875 95.320312 37.144531 95.527344 C 37.320312 95.734375 37.53125 95.898438 37.769531 96.015625 C 38.011719 96.132812 38.273438 96.191406 38.558594 96.191406 C 39.179688 96.191406 39.738281 95.890625 40.234375 95.289062 L 40.234375 94.503906 L 39.007812 94.503906 L 39.007812 93.957031 L 40.84375 93.957031 L 40.84375 96.800781 L 40.234375 96.800781 Z M 40.234375 96.03125 "/>
<path style=" stroke:none;fill-rule:nonzero;fill:rgb(0%,0%,0%);fill-opacity:1;" d="M 42.75 91.09375 L 43.472656 91.09375 L 43.472656 96.800781 L 42.75 96.800781 Z M 42.75 91.09375 "/>
<path style=" stroke:none;fill-rule:nonzero;fill:rgb(0%,0%,0%);fill-opacity:1;" d="M 46.269531 92.445312 L 46.269531 96.800781 L 45.546875 96.800781 L 45.546875 91.09375 L 46.109375 91.09375 L 49.636719 95.539062 L 49.636719 91.101562 L 50.359375 91.101562 L 50.359375 96.800781 L 49.75 96.800781 Z M 46.269531 92.445312 "/>
<path style=" stroke:none;fill-rule:nonzero;fill:rgb(0%,0%,0%);fill-opacity:1;" d="M 56.304688 96.160156 L 56.304688 96.800781 L 52.4375 96.800781 L 52.4375 91.09375 L 56.234375 91.09375 L 56.234375 91.734375 L 53.160156 91.734375 L 53.160156 93.585938 L 55.832031 93.585938 L 55.832031 94.1875 L 53.160156 94.1875 L 53.160156 96.160156 Z M 56.304688 96.160156 "/>
<path style=" stroke:none;fill-rule:nonzero;fill:rgb(0%,0%,0%);fill-opacity:1;" d="M 61.765625 96.160156 L 61.765625 96.800781 L 57.898438 96.800781 L 57.898438 91.09375 L 61.691406 91.09375 L 61.691406 91.734375 L 58.617188 91.734375 L 58.617188 93.585938 L 61.289062 93.585938 L 61.289062 94.1875 L 58.617188 94.1875 L 58.617188 96.160156 Z M 61.765625 96.160156 "/>
<path style=" stroke:none;fill-rule:nonzero;fill:rgb(0%,0%,0%);fill-opacity:1;" d="M 64.078125 94.109375 L 65.804688 94.109375 C 65.953125 94.109375 66.085938 94.078125 66.207031 94.011719 C 66.328125 93.949219 66.429688 93.859375 66.515625 93.75 C 66.601562 93.640625 66.667969 93.511719 66.71875 93.367188 C 66.765625 93.222656 66.789062 93.074219 66.789062 92.917969 C 66.789062 92.757812 66.761719 92.605469 66.707031 92.464844 C 66.648438 92.320312 66.574219 92.195312 66.480469 92.085938 C 66.386719 91.976562 66.277344 91.890625 66.152344 91.828125 C 66.027344 91.765625 65.894531 91.738281 65.753906 91.738281 L 64.078125 91.738281 Z M 63.355469 96.800781 L 63.355469 91.09375 L 65.792969 91.09375 C 66.046875 91.09375 66.277344 91.144531 66.488281 91.25 C 66.699219 91.355469 66.882812 91.492188 67.035156 91.667969 C 67.1875 91.84375 67.304688 92.039062 67.390625 92.253906 C 67.476562 92.472656 67.519531 92.691406 67.519531 92.917969 C 67.519531 93.117188 67.492188 93.308594 67.433594 93.492188 C 67.378906 93.679688 67.300781 93.847656 67.195312 93.996094 C 67.089844 94.144531 66.964844 94.273438 66.816406 94.382812 C 66.671875 94.488281 66.507812 94.566406 66.324219 94.613281 L 67.703125 96.800781 L 66.886719 96.800781 L 65.585938 94.75 L 64.078125 94.75 L 64.078125 96.800781 Z M 63.355469 96.800781 "/>
<path style=" stroke:none;fill-rule:nonzero;fill:rgb(0%,0%,0%);fill-opacity:1;" d="M 73.195312 96.160156 L 73.195312 96.800781 L 69.328125 96.800781 L 69.328125 91.09375 L 73.125 91.09375 L 73.125 91.734375 L 70.050781 91.734375 L 70.050781 93.585938 L 72.722656 93.585938 L 72.722656 94.1875 L 70.050781 94.1875 L 70.050781 96.160156 Z M 73.195312 96.160156 "/>
<path style=" stroke:none;fill-rule:nonzero;fill:rgb(0%,0%,0%);fill-opacity:1;" d="M 78.785156 93.941406 C 78.785156 93.617188 78.738281 93.320312 78.652344 93.050781 C 78.5625 92.78125 78.433594 92.546875 78.257812 92.355469 C 78.085938 92.164062 77.871094 92.011719 77.621094 91.902344 C 77.367188 91.792969 77.082031 91.738281 76.761719 91.738281 L 75.511719 91.738281 L 75.511719 96.160156 L 76.761719 96.160156 C 77.089844 96.160156 77.378906 96.101562 77.632812 95.988281 C 77.886719 95.878906 78.097656 95.722656 78.265625 95.523438 C 78.433594 95.324219 78.5625 95.089844 78.652344 94.820312 C 78.738281 94.550781 78.785156 94.257812 78.785156 93.941406 M 74.789062 96.800781 L 74.789062 91.09375 L 76.761719 91.09375 C 77.214844 91.09375 77.617188 91.167969 77.960938 91.316406 C 78.304688 91.46875 78.59375 91.671875 78.824219 91.929688 C 79.054688 92.1875 79.226562 92.488281 79.339844 92.832031 C 79.457031 93.179688 79.515625 93.546875 79.515625 93.941406 C 79.515625 94.375 79.449219 94.765625 79.320312 95.117188 C 79.191406 95.46875 79.007812 95.769531 78.769531 96.019531 C 78.527344 96.269531 78.238281 96.460938 77.898438 96.597656 C 77.558594 96.734375 77.179688 96.800781 76.761719 96.800781 Z M 74.789062 96.800781 "/>
<path style=" stroke:none;fill-rule:nonzero;fill:rgb(0%,0%,0%);fill-opacity:1;" d="M 85.320312 96.800781 L 85.320312 91.09375 L 89.082031 91.09375 L 89.082031 91.738281 L 86.042969 91.738281 L 86.042969 93.640625 L 88.601562 93.640625 L 88.601562 94.246094 L 86.042969 94.246094 L 86.042969 96.800781 Z M 85.320312 96.800781 "/>
<path style=" stroke:none;fill-rule:nonzero;fill:rgb(0%,0%,0%);fill-opacity:1;" d="M 90.894531 93.949219 C 90.894531 94.238281 90.941406 94.515625 91.035156 94.789062 C 91.128906 95.058594 91.261719 95.296875 91.433594 95.507812 C 91.605469 95.714844 91.8125 95.882812 92.050781 96.007812 C 92.292969 96.128906 92.558594 96.191406 92.855469 96.191406 C 93.160156 96.191406 93.429688 96.125 93.671875 95.996094 C 93.914062 95.863281 94.117188 95.691406 94.285156 95.480469 C 94.453125 95.269531 94.582031 95.027344 94.671875 94.761719 C 94.757812 94.492188 94.804688 94.222656 94.804688 93.949219 C 94.804688 93.660156 94.757812 93.378906 94.664062 93.105469 C 94.570312 92.835938 94.4375 92.597656 94.261719 92.390625 C 94.089844 92.183594 93.882812 92.019531 93.644531 91.898438 C 93.40625 91.773438 93.144531 91.710938 92.855469 91.710938 C 92.546875 91.710938 92.277344 91.777344 92.035156 91.90625 C 91.792969 92.035156 91.589844 92.203125 91.421875 92.410156 C 91.253906 92.621094 91.125 92.859375 91.03125 93.128906 C 90.941406 93.394531 90.894531 93.667969 90.894531 93.949219 M 92.847656 96.84375 C 92.445312 96.84375 92.078125 96.761719 91.75 96.597656 C 91.421875 96.433594 91.140625 96.214844 90.902344 95.945312 C 90.667969 95.675781 90.488281 95.367188 90.359375 95.015625 C 90.230469 94.667969 90.164062 94.3125 90.164062 93.949219 C 90.164062 93.566406 90.234375 93.203125 90.371094 92.855469 C 90.507812 92.503906 90.695312 92.199219 90.9375 91.929688 C 91.175781 91.660156 91.460938 91.449219 91.789062 91.289062 C 92.121094 91.132812 92.476562 91.050781 92.863281 91.050781 C 93.261719 91.050781 93.625 91.136719 93.953125 91.304688 C 94.28125 91.476562 94.558594 91.695312 94.796875 91.96875 C 95.03125 92.242188 95.210938 92.550781 95.339844 92.898438 C 95.46875 93.246094 95.535156 93.597656 95.535156 93.957031 C 95.535156 94.335938 95.464844 94.699219 95.328125 95.050781 C 95.191406 95.398438 95.003906 95.703125 94.765625 95.96875 C 94.53125 96.234375 94.246094 96.449219 93.917969 96.605469 C 93.589844 96.761719 93.230469 96.84375 92.847656 96.84375 "/>
<path style=" stroke:none;fill-rule:nonzero;fill:rgb(0%,0%,0%);fill-opacity:1;" d="M 97.988281 94.109375 L 99.714844 94.109375 C 99.863281 94.109375 100 94.078125 100.121094 94.011719 C 100.238281 93.949219 100.34375 93.859375 100.429688 93.75 C 100.515625 93.640625 100.582031 93.511719 100.628906 93.367188 C 100.675781 93.222656 100.703125 93.074219 100.703125 92.917969 C 100.703125 92.757812 100.671875 92.605469 100.617188 92.464844 C 100.5625 92.320312 100.484375 92.195312 100.390625 92.085938 C 100.296875 91.976562 100.1875 91.890625 100.0625 91.828125 C 99.9375 91.765625 99.804688 91.738281 99.667969 91.738281 L 97.988281 91.738281 Z M 97.265625 96.800781 L 97.265625 91.09375 L 99.707031 91.09375 C 99.957031 91.09375 100.1875 91.144531 100.398438 91.25 C 100.613281 91.355469 100.792969 91.492188 100.945312 91.667969 C 101.097656 91.84375 101.21875 92.039062 101.304688 92.253906 C 101.386719 92.472656 101.429688 92.691406 101.429688 92.917969 C 101.429688 93.117188 101.402344 93.308594 101.347656 93.492188 C 101.289062 93.679688 101.210938 93.847656 101.105469 93.996094 C 101.003906 94.144531 100.875 94.273438 100.730469 94.382812 C 100.582031 94.488281 100.417969 94.566406 100.234375 94.613281 L 101.617188 96.800781 L 100.796875 96.800781 L 99.496094 94.75 L 97.988281 94.75 L 97.988281 96.800781 Z M 97.265625 96.800781 "/>
<path style=" stroke:none;fill-rule:nonzero;fill:rgb(0%,0%,0%);fill-opacity:1;" d="M 107.542969 91.09375 L 109.269531 94.066406 L 111.007812 91.09375 L 111.796875 91.09375 L 109.628906 94.71875 L 109.628906 96.800781 L 108.90625 96.800781 L 108.90625 94.703125 L 106.75 91.09375 Z M 107.542969 91.09375 "/>
<path style=" stroke:none;fill-rule:nonzero;fill:rgb(0%,0%,0%);fill-opacity:1;" d="M 113.21875 93.949219 C 113.21875 94.238281 113.265625 94.515625 113.359375 94.789062 C 113.453125 95.058594 113.585938 95.296875 113.757812 95.507812 C 113.929688 95.714844 114.132812 95.882812 114.375 96.007812 C 114.617188 96.128906 114.882812 96.191406 115.175781 96.191406 C 115.480469 96.191406 115.753906 96.125 115.996094 95.996094 C 116.238281 95.863281 116.441406 95.691406 116.609375 95.480469 C 116.777344 95.269531 116.90625 95.027344 116.996094 94.761719 C 117.082031 94.492188 117.128906 94.222656 117.128906 93.949219 C 117.128906 93.660156 117.082031 93.378906 116.988281 93.105469 C 116.894531 92.835938 116.757812 92.597656 116.585938 92.390625 C 116.410156 92.183594 116.207031 92.019531 115.96875 91.898438 C 115.730469 91.773438 115.464844 91.710938 115.175781 91.710938 C 114.871094 91.710938 114.597656 91.777344 114.359375 91.90625 C 114.117188 92.035156 113.914062 92.203125 113.746094 92.410156 C 113.578125 92.621094 113.445312 92.859375 113.355469 93.128906 C 113.265625 93.394531 113.21875 93.667969 113.21875 93.949219 M 115.167969 96.84375 C 114.769531 96.84375 114.402344 96.761719 114.074219 96.597656 C 113.746094 96.433594 113.464844 96.214844 113.226562 95.945312 C 112.992188 95.675781 112.808594 95.367188 112.683594 95.015625 C 112.554688 94.667969 112.488281 94.3125 112.488281 93.949219 C 112.488281 93.566406 112.558594 93.203125 112.695312 92.855469 C 112.832031 92.503906 113.019531 92.199219 113.257812 91.929688 C 113.5 91.660156 113.785156 91.449219 114.113281 91.289062 C 114.441406 91.132812 114.800781 91.050781 115.183594 91.050781 C 115.585938 91.050781 115.949219 91.136719 116.277344 91.304688 C 116.601562 91.476562 116.882812 91.695312 117.121094 91.96875 C 117.355469 92.242188 117.535156 92.550781 117.664062 92.898438 C 117.792969 93.246094 117.859375 93.597656 117.859375 93.957031 C 117.859375 94.335938 117.789062 94.699219 117.652344 95.050781 C 117.515625 95.398438 117.328125 95.703125 117.089844 95.96875 C 116.851562 96.234375 116.570312 96.449219 116.242188 96.605469 C 115.910156 96.761719 115.554688 96.84375 115.167969 96.84375 "/>
<path style=" stroke:none;fill-rule:nonzero;fill:rgb(0%,0%,0%);fill-opacity:1;" d="M 121.902344 96.191406 C 122.234375 96.191406 122.507812 96.128906 122.726562 96 C 122.945312 95.871094 123.121094 95.703125 123.253906 95.496094 C 123.382812 95.289062 123.476562 95.054688 123.53125 94.789062 C 123.582031 94.523438 123.609375 94.253906 123.609375 93.980469 L 123.609375 91.09375 L 124.332031 91.09375 L 124.332031 93.980469 C 124.332031 94.367188 124.289062 94.730469 124.199219 95.078125 C 124.113281 95.421875 123.972656 95.726562 123.777344 95.988281 C 123.585938 96.253906 123.335938 96.460938 123.027344 96.613281 C 122.722656 96.765625 122.347656 96.84375 121.910156 96.84375 C 121.453125 96.84375 121.070312 96.761719 120.761719 96.601562 C 120.453125 96.441406 120.203125 96.226562 120.011719 95.960938 C 119.820312 95.695312 119.683594 95.390625 119.601562 95.046875 C 119.519531 94.699219 119.476562 94.34375 119.476562 93.980469 L 119.476562 91.09375 L 120.199219 91.09375 L 120.199219 93.980469 C 120.199219 94.265625 120.226562 94.539062 120.285156 94.804688 C 120.339844 95.070312 120.433594 95.304688 120.566406 95.507812 C 120.695312 95.710938 120.871094 95.875 121.085938 96.003906 C 121.304688 96.128906 121.574219 96.191406 121.902344 96.191406 "/>
</g>
</svg>
